<?xml version="1.0" encoding="UTF-8" standalone="no"?>
<!DOCTYPE svg PUBLIC "-//W3C//DTD SVG 1.1//EN"
 "http://www.w3.org/Graphics/SVG/1.1/DTD/svg11.dtd">
<!-- Generated by graphviz version 2.40.1 (20161225.0304)
 -->
<!-- Title: dependency&#45;cruiser output Pages: 1 -->
<svg width="457pt" height="331pt"
 viewBox="0.00 0.00 457.00 330.65" xmlns="http://www.w3.org/2000/svg" xmlns:xlink="http://www.w3.org/1999/xlink">
<g id="graph0" class="graph" transform="scale(1 1) rotate(0) translate(4 326.652)">
<title>dependency&#45;cruiser output</title>
<polygon fill="#ffffff" stroke="transparent" points="-4,4 -4,-326.652 453,-326.652 453,4 -4,4"/>
<g id="clust1" class="cluster">
<title>cluster_src</title>
<path fill="#ffffff" stroke="#000000" stroke-width="2" d="M20,-28.652C20,-28.652 429,-28.652 429,-28.652 435,-28.652 441,-34.652 441,-40.652 441,-40.652 441,-302.652 441,-302.652 441,-308.652 435,-314.652 429,-314.652 429,-314.652 20,-314.652 20,-314.652 14,-314.652 8,-308.652 8,-302.652 8,-302.652 8,-40.652 8,-40.652 8,-34.652 14,-28.652 20,-28.652"/>
<text text-anchor="middle" x="224.5" y="-303.452" font-family="Helvetica,sans-Serif" font-weight="bold" font-size="9.00" fill="#000000">src</text>
</g>
<g id="clust2" class="cluster">
<title>cluster_src/components</title>
<path fill="#ffffff" stroke="#000000" stroke-width="2" d="M158,-76.652C158,-76.652 359,-76.652 359,-76.652 365,-76.652 371,-82.652 371,-88.652 371,-88.652 371,-236.652 371,-236.652 371,-242.652 365,-248.652 359,-248.652 359,-248.652 158,-248.652 158,-248.652 152,-248.652 146,-242.652 146,-236.652 146,-236.652 146,-88.652 146,-88.652 146,-82.652 152,-76.652 158,-76.652"/>
<text text-anchor="middle" x="258.5" y="-237.452" font-family="Helvetica,sans-Serif" font-weight="bold" font-size="9.00" fill="#000000">components</text>
</g>
<!-- src/API.ts -->
<g id="node1" class="node">
<title>src/API.ts</title>
<g id="a_node1"><a xlink:href="../src/API.ts" xlink:title="API.ts">
<path fill="#ddfeff" stroke="#000000" d="M220,-274.652C220,-274.652 178,-274.652 178,-274.652 175,-274.652 172,-271.652 172,-268.652 172,-268.652 172,-262.652 172,-262.652 172,-259.652 175,-256.652 178,-256.652 178,-256.652 220,-256.652 220,-256.652 223,-256.652 226,-259.652 226,-262.652 226,-262.652 226,-268.652 226,-268.652 226,-271.652 223,-274.652 220,-274.652"/>
<text text-anchor="middle" x="199" y="-263.452" font-family="Helvetica,sans-Serif" font-size="9.00" fill="#000000">API.ts</text>
</a>
</g>
</g>
<!-- src/todo.ts -->
<g id="node2" class="node">
<title>src/todo.ts</title>
<g id="a_node2"><a xlink:href="../src/todo.ts" xlink:title="todo.ts">
<path fill="#ddfeff" stroke="#000000" d="M331,-288.652C331,-288.652 289,-288.652 289,-288.652 286,-288.652 283,-285.652 283,-282.652 283,-282.652 283,-276.652 283,-276.652 283,-273.652 286,-270.652 289,-270.652 289,-270.652 331,-270.652 331,-270.652 334,-270.652 337,-273.652 337,-276.652 337,-276.652 337,-282.652 337,-282.652 337,-285.652 334,-288.652 331,-288.652"/>
<text text-anchor="middle" x="310" y="-277.452" font-family="Helvetica,sans-Serif" font-size="9.00" fill="#000000">todo.ts</text>
</a>
</g>
</g>
<!-- src/API.ts&#45;&gt;src/todo.ts -->
<g id="edge1" class="edge">
<title>src/API.ts&#45;&gt;src/todo.ts</title>
<path fill="none" stroke="#000000" stroke-width="2" stroke-opacity="0.200000" d="M226.1537,-269.0768C241.3388,-270.9921 260.394,-273.3954 276.4999,-275.4268"/>
<polygon fill="#000000" fill-opacity="0.200000" stroke="#000000" stroke-width="2" stroke-opacity="0.200000" points="276.5263,-277.5467 282.742,-276.2141 277.0519,-273.3797 276.5263,-277.5467"/>
</g>
<!-- src/types.ts -->
<g id="node3" class="node">
<title>src/types.ts</title>
<g id="a_node3"><a xlink:href="../src/types.ts" xlink:title="types.ts">
<path fill="#ddfeff" stroke="#000000" d="M427,-199.652C427,-199.652 385,-199.652 385,-199.652 382,-199.652 379,-196.652 379,-193.652 379,-193.652 379,-187.652 379,-187.652 379,-184.652 382,-181.652 385,-181.652 385,-181.652 427,-181.652 427,-181.652 430,-181.652 433,-184.652 433,-187.652 433,-187.652 433,-193.652 433,-193.652 433,-196.652 430,-199.652 427,-199.652"/>
<text text-anchor="middle" x="406" y="-188.452" font-family="Helvetica,sans-Serif" font-size="9.00" fill="#000000">types.ts</text>
</a>
</g>
</g>
<!-- src/API.ts&#45;&gt;src/types.ts -->
<g id="edge2" class="edge">
<title>src/API.ts&#45;&gt;src/types.ts</title>
<path fill="none" stroke="#000000" stroke-width="2" stroke-opacity="0.200000" d="M226.0817,-264.8234C271.4591,-263.2324 359.0798,-259.2179 371,-251.652 387.4164,-241.2324 396.9525,-220.171 401.8157,-205.7398"/>
<polygon fill="#000000" fill-opacity="0.200000" stroke="#000000" stroke-width="2" stroke-opacity="0.200000" points="403.8204,-206.365 403.6202,-200.0113 399.8144,-205.103 403.8204,-206.365"/>
</g>
<!-- src/todo.ts&#45;&gt;src/types.ts -->
<g id="edge19" class="edge">
<title>src/todo.ts&#45;&gt;src/types.ts</title>
<path fill="none" stroke="#000000" stroke-width="2" stroke-opacity="0.200000" d="M337.2097,-276.5344C348.6821,-274.0587 361.5404,-269.6177 371,-261.652 388.2613,-247.1169 397.7788,-222.0173 402.3849,-205.8858"/>
<polygon fill="#000000" fill-opacity="0.200000" stroke="#000000" stroke-width="2" stroke-opacity="0.200000" points="404.4424,-206.3205 403.9662,-199.9815 400.3854,-205.2339 404.4424,-206.3205"/>
</g>
<!-- src/App.tsx -->
<g id="node4" class="node">
<title>src/App.tsx</title>
<g id="a_node4"><a xlink:href="../src/App.tsx" xlink:title="App.tsx">
<path fill="#bbfeff" stroke="#000000" d="M131.5,-162.652C131.5,-162.652 89.5,-162.652 89.5,-162.652 86.5,-162.652 83.5,-159.652 83.5,-156.652 83.5,-156.652 83.5,-150.652 83.5,-150.652 83.5,-147.652 86.5,-144.652 89.5,-144.652 89.5,-144.652 131.5,-144.652 131.5,-144.652 134.5,-144.652 137.5,-147.652 137.5,-150.652 137.5,-150.652 137.5,-156.652 137.5,-156.652 137.5,-159.652 134.5,-162.652 131.5,-162.652"/>
<text text-anchor="middle" x="110.5" y="-151.452" font-family="Helvetica,sans-Serif" font-size="9.00" fill="#000000">App.tsx</text>
</a>
</g>
</g>
<!-- src/App.tsx&#45;&gt;src/API.ts -->
<g id="edge3" class="edge">
<title>src/App.tsx&#45;&gt;src/API.ts</title>
<path fill="none" stroke="#000000" stroke-width="2" stroke-opacity="0.200000" d="M132.3513,-162.7515C134.5389,-164.4284 136.5013,-166.3832 138,-168.652 148.2132,-184.1132 134.0016,-237.5312 146,-251.652 151.0069,-257.5447 158.1744,-261.1071 165.6267,-263.2249"/>
<polygon fill="#000000" fill-opacity="0.200000" stroke="#000000" stroke-width="2" stroke-opacity="0.200000" points="165.5929,-265.3728 171.9123,-264.6835 166.5424,-261.2815 165.5929,-265.3728"/>
</g>
<!-- src/App.tsx&#45;&gt;src/todo.ts -->
<g id="edge10" class="edge">
<title>src/App.tsx&#45;&gt;src/todo.ts</title>
<path fill="none" stroke="#000000" stroke-width="2" stroke-opacity="0.200000" d="M132.4061,-162.7158C134.5844,-164.3988 136.5295,-166.3648 138,-168.652 151.494,-189.6408 127.7383,-263.6482 146,-280.652 181.8514,-314.034 243.5869,-302.095 280.2226,-290.6744"/>
<polygon fill="#000000" fill-opacity="0.200000" stroke="#000000" stroke-width="2" stroke-opacity="0.200000" points="281.2543,-292.5481 286.319,-288.7064 279.964,-288.5512 281.2543,-292.5481"/>
</g>
<!-- src/App.tsx&#45;&gt;src/types.ts -->
<g id="edge11" class="edge">
<title>src/App.tsx&#45;&gt;src/types.ts</title>
<path fill="none" stroke="#000000" stroke-width="2" stroke-opacity="0.200000" d="M112.1753,-144.3683C116.6697,-120.6031 129.7612,-58.5976 146,-46.652 226.5559,12.6062 292.4755,17.2729 371,-44.652 391.5309,-60.8428 401.378,-141.3256 404.6775,-175.3863"/>
<polygon fill="#000000" fill-opacity="0.200000" stroke="#000000" stroke-width="2" stroke-opacity="0.200000" points="402.6038,-175.7673 405.2513,-181.5466 406.7857,-175.3777 402.6038,-175.7673"/>
</g>
<!-- src/components/NewTodo.tsx -->
<g id="node5" class="node">
<title>src/components/NewTodo.tsx</title>
<g id="a_node5"><a xlink:href="../src/components/NewTodo.tsx" xlink:title="NewTodo.tsx">
<path fill="#bbfeff" stroke="#000000" d="M228,-222.652C228,-222.652 170,-222.652 170,-222.652 167,-222.652 164,-219.652 164,-216.652 164,-216.652 164,-210.652 164,-210.652 164,-207.652 167,-204.652 170,-204.652 170,-204.652 228,-204.652 228,-204.652 231,-204.652 234,-207.652 234,-210.652 234,-210.652 234,-216.652 234,-216.652 234,-219.652 231,-222.652 228,-222.652"/>
<text text-anchor="middle" x="199" y="-211.452" font-family="Helvetica,sans-Serif" font-size="9.00" fill="#000000">NewTodo.tsx</text>
</a>
</g>
</g>
<!-- src/App.tsx&#45;&gt;src/components/NewTodo.tsx -->
<g id="edge4" class="edge">
<title>src/App.tsx&#45;&gt;src/components/NewTodo.tsx</title>
<path fill="none" stroke="#000000" stroke-width="2" stroke-opacity="0.200000" d="M131.7284,-162.8108C134.0806,-164.4893 136.2527,-166.4285 138,-168.652 146.5261,-179.5022 136.3169,-188.8206 146,-198.652 149.4443,-202.1491 153.638,-204.8468 158.1422,-206.9252"/>
<polygon fill="#000000" fill-opacity="0.200000" stroke="#000000" stroke-width="2" stroke-opacity="0.200000" points="157.629,-208.9807 163.9806,-209.2401 159.177,-205.0764 157.629,-208.9807"/>
</g>
<!-- src/components/SyncIndicator.tsx -->
<g id="node6" class="node">
<title>src/components/SyncIndicator.tsx</title>
<g id="a_node6"><a xlink:href="../src/components/SyncIndicator.tsx" xlink:title="SyncIndicator.tsx">
<path fill="#bbfeff" stroke="#000000" d="M236,-192.652C236,-192.652 162,-192.652 162,-192.652 159,-192.652 156,-189.652 156,-186.652 156,-186.652 156,-180.652 156,-180.652 156,-177.652 159,-174.652 162,-174.652 162,-174.652 236,-174.652 236,-174.652 239,-174.652 242,-177.652 242,-180.652 242,-180.652 242,-186.652 242,-186.652 242,-189.652 239,-192.652 236,-192.652"/>
<text text-anchor="middle" x="199" y="-181.452" font-family="Helvetica,sans-Serif" font-size="9.00" fill="#000000">SyncIndicator.tsx</text>
</a>
</g>
</g>
<!-- src/App.tsx&#45;&gt;src/components/SyncIndicator.tsx -->
<g id="edge5" class="edge">
<title>src/App.tsx&#45;&gt;src/components/SyncIndicator.tsx</title>
<path fill="none" stroke="#000000" stroke-width="2" stroke-opacity="0.200000" d="M130.6054,-162.6577C135.5893,-164.7481 140.9499,-166.8781 146,-168.652 150.0939,-170.09 154.4016,-171.4895 158.7187,-172.819"/>
<polygon fill="#000000" fill-opacity="0.200000" stroke="#000000" stroke-width="2" stroke-opacity="0.200000" points="158.2417,-174.8684 164.5923,-174.5855 159.4514,-170.8463 158.2417,-174.8684"/>
</g>
<!-- src/components/ThemeToggler.tsx -->
<g id="node7" class="node">
<title>src/components/ThemeToggler.tsx</title>
<g id="a_node7"><a xlink:href="../src/components/ThemeToggler.tsx" xlink:title="ThemeToggler.tsx">
<path fill="#bbfeff" stroke="#000000" d="M238,-102.652C238,-102.652 160,-102.652 160,-102.652 157,-102.652 154,-99.652 154,-96.652 154,-96.652 154,-90.652 154,-90.652 154,-87.652 157,-84.652 160,-84.652 160,-84.652 238,-84.652 238,-84.652 241,-84.652 244,-87.652 244,-90.652 244,-90.652 244,-96.652 244,-96.652 244,-99.652 241,-102.652 238,-102.652"/>
<text text-anchor="middle" x="199" y="-91.452" font-family="Helvetica,sans-Serif" font-size="9.00" fill="#000000">ThemeToggler.tsx</text>
</a>
</g>
</g>
<!-- src/App.tsx&#45;&gt;src/components/ThemeToggler.tsx -->
<g id="edge6" class="edge">
<title>src/App.tsx&#45;&gt;src/components/ThemeToggler.tsx</title>
<path fill="none" stroke="#000000" stroke-width="2" stroke-opacity="0.200000" d="M115.274,-144.6494C121.157,-134.42 132.1026,-117.9438 146,-108.652 147.8582,-107.4096 149.819,-106.269 151.8481,-105.2221"/>
<polygon fill="#000000" fill-opacity="0.200000" stroke="#000000" stroke-width="2" stroke-opacity="0.200000" points="152.7986,-107.0961 157.3552,-102.6635 151.0289,-103.2871 152.7986,-107.0961"/>
</g>
<!-- src/components/TodoItem.tsx -->
<g id="node8" class="node">
<title>src/components/TodoItem.tsx</title>
<g id="a_node8"><a xlink:href="../src/components/TodoItem.tsx" xlink:title="TodoItem.tsx">
<path fill="#bbfeff" stroke="#000000" d="M227,-132.652C227,-132.652 171,-132.652 171,-132.652 168,-132.652 165,-129.652 165,-126.652 165,-126.652 165,-120.652 165,-120.652 165,-117.652 168,-114.652 171,-114.652 171,-114.652 227,-114.652 227,-114.652 230,-114.652 233,-117.652 233,-120.652 233,-120.652 233,-126.652 233,-126.652 233,-129.652 230,-132.652 227,-132.652"/>
<text text-anchor="middle" x="199" y="-121.452" font-family="Helvetica,sans-Serif" font-size="9.00" fill="#000000">TodoItem.tsx</text>
</a>
</g>
</g>
<!-- src/App.tsx&#45;&gt;src/components/TodoItem.tsx -->
<g id="edge7" class="edge">
<title>src/App.tsx&#45;&gt;src/components/TodoItem.tsx</title>
<path fill="none" stroke="#000000" stroke-width="2" stroke-opacity="0.200000" d="M130.6054,-144.6464C135.5893,-142.556 140.9499,-140.4259 146,-138.652 150.1559,-137.1922 154.5322,-135.7721 158.915,-134.4247"/>
<polygon fill="#000000" fill-opacity="0.200000" stroke="#000000" stroke-width="2" stroke-opacity="0.200000" points="159.7325,-136.3719 164.8754,-132.6354 158.5249,-132.3493 159.7325,-136.3719"/>
</g>
<!-- src/components/VisitListCode.tsx -->
<g id="node9" class="node">
<title>src/components/VisitListCode.tsx</title>
<g id="a_node9"><a xlink:href="../src/components/VisitListCode.tsx" xlink:title="VisitListCode.tsx">
<path fill="#bbfeff" stroke="#000000" d="M235,-162.652C235,-162.652 163,-162.652 163,-162.652 160,-162.652 157,-159.652 157,-156.652 157,-156.652 157,-150.652 157,-150.652 157,-147.652 160,-144.652 163,-144.652 163,-144.652 235,-144.652 235,-144.652 238,-144.652 241,-147.652 241,-150.652 241,-150.652 241,-156.652 241,-156.652 241,-159.652 238,-162.652 235,-162.652"/>
<text text-anchor="middle" x="199" y="-151.452" font-family="Helvetica,sans-Serif" font-size="9.00" fill="#000000">VisitListCode.tsx</text>
</a>
</g>
</g>
<!-- src/App.tsx&#45;&gt;src/components/VisitListCode.tsx -->
<g id="edge8" class="edge">
<title>src/App.tsx&#45;&gt;src/components/VisitListCode.tsx</title>
<path fill="none" stroke="#000000" stroke-width="2" stroke-opacity="0.200000" d="M137.5338,-153.652C141.7275,-153.652 146.1656,-153.652 150.6604,-153.652"/>
<polygon fill="#000000" fill-opacity="0.200000" stroke="#000000" stroke-width="2" stroke-opacity="0.200000" points="150.8074,-155.7521 156.8074,-153.652 150.8073,-151.5521 150.8074,-155.7521"/>
</g>
<!-- src/hooks.ts -->
<g id="node10" class="node">
<title>src/hooks.ts</title>
<g id="a_node10"><a xlink:href="../src/hooks.ts" xlink:title="hooks.ts">
<path fill="#ddfeff" stroke="#000000" d="M331,-68.652C331,-68.652 289,-68.652 289,-68.652 286,-68.652 283,-65.652 283,-62.652 283,-62.652 283,-56.652 283,-56.652 283,-53.652 286,-50.652 289,-50.652 289,-50.652 331,-50.652 331,-50.652 334,-50.652 337,-53.652 337,-56.652 337,-56.652 337,-62.652 337,-62.652 337,-65.652 334,-68.652 331,-68.652"/>
<text text-anchor="middle" x="310" y="-57.452" font-family="Helvetica,sans-Serif" font-size="9.00" fill="#000000">hooks.ts</text>
</a>
</g>
</g>
<!-- src/App.tsx&#45;&gt;src/hooks.ts -->
<g id="edge9" class="edge">
<title>src/App.tsx&#45;&gt;src/hooks.ts</title>
<path fill="none" stroke="#000000" stroke-width="2" stroke-opacity="0.200000" d="M111.5526,-144.594C114.0681,-127.4987 122.1176,-90.6714 146,-73.652 184.2775,-46.3741 241.0709,-48.3697 276.7847,-53.2824"/>
<polygon fill="#000000" fill-opacity="0.200000" stroke="#000000" stroke-width="2" stroke-opacity="0.200000" points="276.5224,-55.3663 282.7636,-54.1592 277.1318,-51.2107 276.5224,-55.3663"/>
</g>
<!-- src/components/TextFieldIconForm.tsx -->
<g id="node11" class="node">
<title>src/components/TextFieldIconForm.tsx</title>
<g id="a_node11"><a xlink:href="../src/components/TextFieldIconForm.tsx" xlink:title="TextFieldIconForm.tsx">
<path fill="#bbfeff" stroke="#000000" d="M357,-203.652C357,-203.652 263,-203.652 263,-203.652 260,-203.652 257,-200.652 257,-197.652 257,-197.652 257,-191.652 257,-191.652 257,-188.652 260,-185.652 263,-185.652 263,-185.652 357,-185.652 357,-185.652 360,-185.652 363,-188.652 363,-191.652 363,-191.652 363,-197.652 363,-197.652 363,-200.652 360,-203.652 357,-203.652"/>
<text text-anchor="middle" x="310" y="-192.452" font-family="Helvetica,sans-Serif" font-size="9.00" fill="#000000">TextFieldIconForm.tsx</text>
</a>
</g>
</g>
<!-- src/components/NewTodo.tsx&#45;&gt;src/components/TextFieldIconForm.tsx -->
<g id="edge12" class="edge">
<title>src/components/NewTodo.tsx&#45;&gt;src/components/TextFieldIconForm.tsx</title>
<path fill="none" stroke="#000000" stroke-width="2" stroke-opacity="0.200000" d="M234.1211,-207.6403C239.5318,-206.7142 245.2425,-205.7367 251.0037,-204.7505"/>
<polygon fill="#000000" fill-opacity="0.200000" stroke="#000000" stroke-width="2" stroke-opacity="0.200000" points="251.7035,-206.7613 257.2631,-203.6791 250.9948,-202.6215 251.7035,-206.7613"/>
</g>
<!-- src/components/ThemeToggler.tsx&#45;&gt;src/hooks.ts -->
<g id="edge13" class="edge">
<title>src/components/ThemeToggler.tsx&#45;&gt;src/hooks.ts</title>
<path fill="none" stroke="#000000" stroke-width="2" stroke-opacity="0.200000" d="M233.172,-84.6145C236.8652,-83.3913 240.5368,-82.0659 244,-80.652 250.0754,-78.1718 250.8965,-76.0623 257,-73.652 263.3028,-71.1631 270.1996,-68.9757 276.8724,-67.1145"/>
<polygon fill="#000000" fill-opacity="0.200000" stroke="#000000" stroke-width="2" stroke-opacity="0.200000" points="277.6608,-69.0775 282.914,-65.4978 276.575,-65.0203 277.6608,-69.0775"/>
</g>
<!-- src/components/TodoItem.tsx&#45;&gt;src/types.ts -->
<g id="edge14" class="edge">
<title>src/components/TodoItem.tsx&#45;&gt;src/types.ts</title>
<path fill="none" stroke="#000000" stroke-width="2" stroke-opacity="0.200000" d="M233.0679,-115.981C269.8681,-109.6421 328.8762,-105.3044 371,-130.652 387.3082,-140.4654 396.8111,-160.9841 401.7012,-175.2781"/>
<polygon fill="#000000" fill-opacity="0.200000" stroke="#000000" stroke-width="2" stroke-opacity="0.200000" points="399.8115,-176.2655 403.6313,-181.3468 403.814,-174.9925 399.8115,-176.2655"/>
</g>
<!-- src/components/WhenIcon.tsx -->
<g id="node12" class="node">
<title>src/components/WhenIcon.tsx</title>
<g id="a_node12"><a xlink:href="../src/components/WhenIcon.tsx" xlink:title="WhenIcon.tsx">
<path fill="#bbfeff" stroke="#000000" d="M339.5,-154.652C339.5,-154.652 280.5,-154.652 280.5,-154.652 277.5,-154.652 274.5,-151.652 274.5,-148.652 274.5,-148.652 274.5,-142.652 274.5,-142.652 274.5,-139.652 277.5,-136.652 280.5,-136.652 280.5,-136.652 339.5,-136.652 339.5,-136.652 342.5,-136.652 345.5,-139.652 345.5,-142.652 345.5,-142.652 345.5,-148.652 345.5,-148.652 345.5,-151.652 342.5,-154.652 339.5,-154.652"/>
<text text-anchor="middle" x="310" y="-143.452" font-family="Helvetica,sans-Serif" font-size="9.00" fill="#000000">WhenIcon.tsx</text>
</a>
</g>
</g>
<!-- src/components/TodoItem.tsx&#45;&gt;src/components/WhenIcon.tsx -->
<g id="edge15" class="edge">
<title>src/components/TodoItem.tsx&#45;&gt;src/components/WhenIcon.tsx</title>
<path fill="none" stroke="#000000" stroke-width="2" stroke-opacity="0.200000" d="M233.2094,-130.4323C244.2753,-132.6255 256.6722,-135.0826 268.223,-137.3719"/>
<polygon fill="#000000" fill-opacity="0.200000" stroke="#000000" stroke-width="2" stroke-opacity="0.200000" points="267.8808,-139.4449 274.1746,-138.5515 268.6974,-135.325 267.8808,-139.4449"/>
</g>
<!-- src/components/VisitListCode.tsx&#45;&gt;src/components/TextFieldIconForm.tsx -->
<g id="edge16" class="edge">
<title>src/components/VisitListCode.tsx&#45;&gt;src/components/TextFieldIconForm.tsx</title>
<path fill="none" stroke="#000000" stroke-width="2" stroke-opacity="0.200000" d="M227.1659,-162.7832C232.7624,-164.6699 238.582,-166.6834 244,-168.652 256.633,-173.2421 270.4904,-178.6441 282.232,-183.3315"/>
<polygon fill="#000000" fill-opacity="0.200000" stroke="#000000" stroke-width="2" stroke-opacity="0.200000" points="281.4608,-185.2848 287.8114,-185.5684 283.0238,-181.3864 281.4608,-185.2848"/>
</g>
<!-- src/index.css -->
<g id="node13" class="node">
<title>src/index.css</title>
<g id="a_node13"><a xlink:href="../src/index.css" xlink:title="index.css">
<path fill="#ffffcc" stroke="#000000" d="M132,-192.652C132,-192.652 89,-192.652 89,-192.652 86,-192.652 83,-189.652 83,-186.652 83,-186.652 83,-180.652 83,-180.652 83,-177.652 86,-174.652 89,-174.652 89,-174.652 132,-174.652 132,-174.652 135,-174.652 138,-177.652 138,-180.652 138,-180.652 138,-186.652 138,-186.652 138,-189.652 135,-192.652 132,-192.652"/>
<text text-anchor="middle" x="110.5" y="-181.452" font-family="Helvetica,sans-Serif" font-size="9.00" fill="#000000">index.css</text>
</a>
</g>
</g>
<!-- src/main.tsx -->
<g id="node14" class="node">
<title>src/main.tsx</title>
<g id="a_node14"><a xlink:href="../src/main.tsx" xlink:title="main.tsx">
<path fill="#bbfeff" stroke="#000000" d="M64,-177.652C64,-177.652 22,-177.652 22,-177.652 19,-177.652 16,-174.652 16,-171.652 16,-171.652 16,-165.652 16,-165.652 16,-162.652 19,-159.652 22,-159.652 22,-159.652 64,-159.652 64,-159.652 67,-159.652 70,-162.652 70,-165.652 70,-165.652 70,-171.652 70,-171.652 70,-174.652 67,-177.652 64,-177.652"/>
<text text-anchor="middle" x="43" y="-166.452" font-family="Helvetica,sans-Serif" font-size="9.00" fill="#000000">main.tsx</text>
</a>
</g>
</g>
<!-- src/main.tsx&#45;&gt;src/App.tsx -->
<g id="edge17" class="edge">
<title>src/main.tsx&#45;&gt;src/App.tsx</title>
<path fill="none" stroke="#000000" stroke-width="2" stroke-opacity="0.200000" d="M70.0659,-162.6374C72.4041,-162.1178 74.7869,-161.5883 77.1669,-161.0594"/>
<polygon fill="#000000" fill-opacity="0.200000" stroke="#000000" stroke-width="2" stroke-opacity="0.200000" points="78.0265,-163.0197 83.428,-159.668 77.1153,-158.9197 78.0265,-163.0197"/>
</g>
<!-- src/main.tsx&#45;&gt;src/index.css -->
<g id="edge18" class="edge">
<title>src/main.tsx&#45;&gt;src/index.css</title>
<path fill="none" stroke="#000000" stroke-width="2" stroke-opacity="0.200000" d="M70.0659,-174.6667C72.3262,-175.169 74.6281,-175.6805 76.9289,-176.1918"/>
<polygon fill="#000000" fill-opacity="0.200000" stroke="#000000" stroke-width="2" stroke-opacity="0.200000" points="76.6747,-178.2864 82.9874,-177.5381 77.5858,-174.1865 76.6747,-178.2864"/>
</g>
</g>
</svg>
