<?xml version="1.0" encoding="UTF-8" standalone="no"?>
<!DOCTYPE svg PUBLIC "-//W3C//DTD SVG 1.1//EN"
 "http://www.w3.org/Graphics/SVG/1.1/DTD/svg11.dtd">
<!-- Generated by graphviz version 2.40.1 (20161225.0304)
 -->
<!-- Title: dependency&#45;cruiser output Pages: 1 -->
<svg width="468pt" height="330pt"
 viewBox="0.00 0.00 468.00 330.30" xmlns="http://www.w3.org/2000/svg" xmlns:xlink="http://www.w3.org/1999/xlink">
<g id="graph0" class="graph" transform="scale(1 1) rotate(0) translate(4 326.3024)">
<title>dependency&#45;cruiser output</title>
<polygon fill="#ffffff" stroke="transparent" points="-4,4 -4,-326.3024 464,-326.3024 464,4 -4,4"/>
<g id="clust1" class="cluster">
<title>cluster_src</title>
<path fill="#ffffff" stroke="#000000" stroke-width="2" d="M20,-28.3024C20,-28.3024 440,-28.3024 440,-28.3024 446,-28.3024 452,-34.3024 452,-40.3024 452,-40.3024 452,-302.3024 452,-302.3024 452,-308.3024 446,-314.3024 440,-314.3024 440,-314.3024 20,-314.3024 20,-314.3024 14,-314.3024 8,-308.3024 8,-302.3024 8,-302.3024 8,-40.3024 8,-40.3024 8,-34.3024 14,-28.3024 20,-28.3024"/>
<text text-anchor="middle" x="230" y="-303.1024" font-family="Helvetica,sans-Serif" font-weight="bold" font-size="9.00" fill="#000000">src</text>
</g>
<g id="clust2" class="cluster">
<title>cluster_src/components</title>
<path fill="#ffffff" stroke="#000000" stroke-width="2" d="M169,-76.3024C169,-76.3024 370,-76.3024 370,-76.3024 376,-76.3024 382,-82.3024 382,-88.3024 382,-88.3024 382,-236.3024 382,-236.3024 382,-242.3024 376,-248.3024 370,-248.3024 370,-248.3024 169,-248.3024 169,-248.3024 163,-248.3024 157,-242.3024 157,-236.3024 157,-236.3024 157,-88.3024 157,-88.3024 157,-82.3024 163,-76.3024 169,-76.3024"/>
<text text-anchor="middle" x="269.5" y="-237.1024" font-family="Helvetica,sans-Serif" font-weight="bold" font-size="9.00" fill="#000000">components</text>
</g>
<!-- src/API.ts -->
<g id="node1" class="node">
<title>src/API.ts</title>
<g id="a_node1"><a xlink:href="https://github.com/RascalTwo/Todo-Frontend/blob/main/src/API.ts" xlink:title="API.ts">
<path fill="#ddfeff" stroke="#000000" d="M231,-274.3024C231,-274.3024 189,-274.3024 189,-274.3024 186,-274.3024 183,-271.3024 183,-268.3024 183,-268.3024 183,-262.3024 183,-262.3024 183,-259.3024 186,-256.3024 189,-256.3024 189,-256.3024 231,-256.3024 231,-256.3024 234,-256.3024 237,-259.3024 237,-262.3024 237,-262.3024 237,-268.3024 237,-268.3024 237,-271.3024 234,-274.3024 231,-274.3024"/>
<text text-anchor="middle" x="210" y="-263.1024" font-family="Helvetica,sans-Serif" font-size="9.00" fill="#000000">API.ts</text>
</a>
</g>
</g>
<!-- src/todo.ts -->
<g id="node2" class="node">
<title>src/todo.ts</title>
<g id="a_node2"><a xlink:href="https://github.com/RascalTwo/Todo-Frontend/blob/main/src/todo.ts" xlink:title="todo.ts">
<path fill="#ddfeff" stroke="#000000" d="M342,-288.3024C342,-288.3024 300,-288.3024 300,-288.3024 297,-288.3024 294,-285.3024 294,-282.3024 294,-282.3024 294,-276.3024 294,-276.3024 294,-273.3024 297,-270.3024 300,-270.3024 300,-270.3024 342,-270.3024 342,-270.3024 345,-270.3024 348,-273.3024 348,-276.3024 348,-276.3024 348,-282.3024 348,-282.3024 348,-285.3024 345,-288.3024 342,-288.3024"/>
<text text-anchor="middle" x="321" y="-277.1024" font-family="Helvetica,sans-Serif" font-size="9.00" fill="#000000">todo.ts</text>
</a>
</g>
</g>
<!-- src/API.ts&#45;&gt;src/todo.ts -->
<g id="edge1" class="edge">
<title>src/API.ts&#45;&gt;src/todo.ts</title>
<path fill="none" stroke="#000000" stroke-width="2" stroke-opacity="0.200000" d="M237.1537,-268.7271C252.3388,-270.6424 271.394,-273.0457 287.4999,-275.0771"/>
<polygon fill="#000000" fill-opacity="0.200000" stroke="#000000" stroke-width="2" stroke-opacity="0.200000" points="287.5263,-277.197 293.742,-275.8644 288.0519,-273.03 287.5263,-277.197"/>
</g>
<!-- src/types.ts -->
<g id="node3" class="node">
<title>src/types.ts</title>
<g id="a_node3"><a xlink:href="https://github.com/RascalTwo/Todo-Frontend/blob/main/src/types.ts" xlink:title="types.ts">
<path fill="#ddfeff" stroke="#000000" d="M438,-199.3024C438,-199.3024 396,-199.3024 396,-199.3024 393,-199.3024 390,-196.3024 390,-193.3024 390,-193.3024 390,-187.3024 390,-187.3024 390,-184.3024 393,-181.3024 396,-181.3024 396,-181.3024 438,-181.3024 438,-181.3024 441,-181.3024 444,-184.3024 444,-187.3024 444,-187.3024 444,-193.3024 444,-193.3024 444,-196.3024 441,-199.3024 438,-199.3024"/>
<text text-anchor="middle" x="417" y="-188.1024" font-family="Helvetica,sans-Serif" font-size="9.00" fill="#000000">types.ts</text>
</a>
</g>
</g>
<!-- src/API.ts&#45;&gt;src/types.ts -->
<g id="edge2" class="edge">
<title>src/API.ts&#45;&gt;src/types.ts</title>
<path fill="none" stroke="#000000" stroke-width="2" stroke-opacity="0.200000" d="M237.0817,-264.4737C282.4591,-262.8827 370.0798,-258.8682 382,-251.3024 398.4164,-240.8827 407.9525,-219.8213 412.8157,-205.3901"/>
<polygon fill="#000000" fill-opacity="0.200000" stroke="#000000" stroke-width="2" stroke-opacity="0.200000" points="414.8204,-206.0153 414.6202,-199.6616 410.8144,-204.7534 414.8204,-206.0153"/>
</g>
<!-- src/todo.ts&#45;&gt;src/types.ts -->
<g id="edge19" class="edge">
<title>src/todo.ts&#45;&gt;src/types.ts</title>
<path fill="none" stroke="#000000" stroke-width="2" stroke-opacity="0.200000" d="M348.2097,-276.1848C359.6821,-273.709 372.5404,-269.268 382,-261.3024 399.2613,-246.7672 408.7788,-221.6676 413.3849,-205.5361"/>
<polygon fill="#000000" fill-opacity="0.200000" stroke="#000000" stroke-width="2" stroke-opacity="0.200000" points="415.4424,-205.9708 414.9662,-199.6318 411.3854,-204.8842 415.4424,-205.9708"/>
</g>
<!-- src/App.tsx -->
<g id="node4" class="node">
<title>src/App.tsx</title>
<g id="a_node4"><a xlink:href="https://github.com/RascalTwo/Todo-Frontend/blob/main/src/App.tsx" xlink:title="App.tsx">
<path fill="#bbfeff" stroke="#000000" d="M142.5,-162.3024C142.5,-162.3024 100.5,-162.3024 100.5,-162.3024 97.5,-162.3024 94.5,-159.3024 94.5,-156.3024 94.5,-156.3024 94.5,-150.3024 94.5,-150.3024 94.5,-147.3024 97.5,-144.3024 100.5,-144.3024 100.5,-144.3024 142.5,-144.3024 142.5,-144.3024 145.5,-144.3024 148.5,-147.3024 148.5,-150.3024 148.5,-150.3024 148.5,-156.3024 148.5,-156.3024 148.5,-159.3024 145.5,-162.3024 142.5,-162.3024"/>
<text text-anchor="middle" x="121.5" y="-151.1024" font-family="Helvetica,sans-Serif" font-size="9.00" fill="#000000">App.tsx</text>
</a>
</g>
</g>
<!-- src/App.tsx&#45;&gt;src/API.ts -->
<g id="edge3" class="edge">
<title>src/App.tsx&#45;&gt;src/API.ts</title>
<path fill="none" stroke="#000000" stroke-width="2" stroke-opacity="0.200000" d="M143.3513,-162.4019C145.5389,-164.0787 147.5013,-166.0335 149,-168.3024 159.2132,-183.7636 145.0016,-237.1815 157,-251.3024 162.0069,-257.195 169.1744,-260.7574 176.6267,-262.8752"/>
<polygon fill="#000000" fill-opacity="0.200000" stroke="#000000" stroke-width="2" stroke-opacity="0.200000" points="176.5929,-265.0231 182.9123,-264.3338 177.5424,-260.9318 176.5929,-265.0231"/>
</g>
<!-- src/App.tsx&#45;&gt;src/todo.ts -->
<g id="edge10" class="edge">
<title>src/App.tsx&#45;&gt;src/todo.ts</title>
<path fill="none" stroke="#000000" stroke-width="2" stroke-opacity="0.200000" d="M143.4061,-162.3661C145.5844,-164.0491 147.5295,-166.0151 149,-168.3024 162.494,-189.2911 138.7383,-263.2986 157,-280.3024 192.8514,-313.6843 254.5869,-301.7454 291.2226,-290.3247"/>
<polygon fill="#000000" fill-opacity="0.200000" stroke="#000000" stroke-width="2" stroke-opacity="0.200000" points="292.2543,-292.1985 297.319,-288.3567 290.964,-288.2016 292.2543,-292.1985"/>
</g>
<!-- src/App.tsx&#45;&gt;src/types.ts -->
<g id="edge11" class="edge">
<title>src/App.tsx&#45;&gt;src/types.ts</title>
<path fill="none" stroke="#000000" stroke-width="2" stroke-opacity="0.200000" d="M123.1951,-144.1124C127.7374,-120.5861 140.9345,-59.1971 157,-47.3024 237.3761,12.2078 303.4717,17.6256 382,-44.3024 402.5309,-60.4931 412.378,-140.9759 415.6775,-175.0366"/>
<polygon fill="#000000" fill-opacity="0.200000" stroke="#000000" stroke-width="2" stroke-opacity="0.200000" points="413.6038,-175.4176 416.2513,-181.197 417.7857,-175.028 413.6038,-175.4176"/>
</g>
<!-- src/components/NewTodo.tsx -->
<g id="node5" class="node">
<title>src/components/NewTodo.tsx</title>
<g id="a_node5"><a xlink:href="https://github.com/RascalTwo/Todo-Frontend/blob/main/src/components/NewTodo.tsx" xlink:title="NewTodo.tsx">
<path fill="#bbfeff" stroke="#000000" d="M239,-222.3024C239,-222.3024 181,-222.3024 181,-222.3024 178,-222.3024 175,-219.3024 175,-216.3024 175,-216.3024 175,-210.3024 175,-210.3024 175,-207.3024 178,-204.3024 181,-204.3024 181,-204.3024 239,-204.3024 239,-204.3024 242,-204.3024 245,-207.3024 245,-210.3024 245,-210.3024 245,-216.3024 245,-216.3024 245,-219.3024 242,-222.3024 239,-222.3024"/>
<text text-anchor="middle" x="210" y="-211.1024" font-family="Helvetica,sans-Serif" font-size="9.00" fill="#000000">NewTodo.tsx</text>
</a>
</g>
</g>
<!-- src/App.tsx&#45;&gt;src/components/NewTodo.tsx -->
<g id="edge4" class="edge">
<title>src/App.tsx&#45;&gt;src/components/NewTodo.tsx</title>
<path fill="none" stroke="#000000" stroke-width="2" stroke-opacity="0.200000" d="M142.7284,-162.4611C145.0806,-164.1397 147.2527,-166.0788 149,-168.3024 157.5261,-179.1525 147.3169,-188.4709 157,-198.3024 160.4443,-201.7994 164.638,-204.4971 169.1422,-206.5755"/>
<polygon fill="#000000" fill-opacity="0.200000" stroke="#000000" stroke-width="2" stroke-opacity="0.200000" points="168.629,-208.631 174.9806,-208.8904 170.177,-204.7267 168.629,-208.631"/>
</g>
<!-- src/components/SyncIndicator.tsx -->
<g id="node6" class="node">
<title>src/components/SyncIndicator.tsx</title>
<g id="a_node6"><a xlink:href="https://github.com/RascalTwo/Todo-Frontend/blob/main/src/components/SyncIndicator.tsx" xlink:title="SyncIndicator.tsx">
<path fill="#bbfeff" stroke="#000000" d="M247,-192.3024C247,-192.3024 173,-192.3024 173,-192.3024 170,-192.3024 167,-189.3024 167,-186.3024 167,-186.3024 167,-180.3024 167,-180.3024 167,-177.3024 170,-174.3024 173,-174.3024 173,-174.3024 247,-174.3024 247,-174.3024 250,-174.3024 253,-177.3024 253,-180.3024 253,-180.3024 253,-186.3024 253,-186.3024 253,-189.3024 250,-192.3024 247,-192.3024"/>
<text text-anchor="middle" x="210" y="-181.1024" font-family="Helvetica,sans-Serif" font-size="9.00" fill="#000000">SyncIndicator.tsx</text>
</a>
</g>
</g>
<!-- src/App.tsx&#45;&gt;src/components/SyncIndicator.tsx -->
<g id="edge5" class="edge">
<title>src/App.tsx&#45;&gt;src/components/SyncIndicator.tsx</title>
<path fill="none" stroke="#000000" stroke-width="2" stroke-opacity="0.200000" d="M141.6054,-162.308C146.5893,-164.3984 151.9499,-166.5285 157,-168.3024 161.0939,-169.7404 165.4016,-171.1399 169.7187,-172.4693"/>
<polygon fill="#000000" fill-opacity="0.200000" stroke="#000000" stroke-width="2" stroke-opacity="0.200000" points="169.2417,-174.5187 175.5923,-174.2358 170.4514,-170.4967 169.2417,-174.5187"/>
</g>
<!-- src/components/ThemeToggler.tsx -->
<g id="node7" class="node">
<title>src/components/ThemeToggler.tsx</title>
<g id="a_node7"><a xlink:href="https://github.com/RascalTwo/Todo-Frontend/blob/main/src/components/ThemeToggler.tsx" xlink:title="ThemeToggler.tsx">
<path fill="#bbfeff" stroke="#000000" d="M249,-102.3024C249,-102.3024 171,-102.3024 171,-102.3024 168,-102.3024 165,-99.3024 165,-96.3024 165,-96.3024 165,-90.3024 165,-90.3024 165,-87.3024 168,-84.3024 171,-84.3024 171,-84.3024 249,-84.3024 249,-84.3024 252,-84.3024 255,-87.3024 255,-90.3024 255,-90.3024 255,-96.3024 255,-96.3024 255,-99.3024 252,-102.3024 249,-102.3024"/>
<text text-anchor="middle" x="210" y="-91.1024" font-family="Helvetica,sans-Serif" font-size="9.00" fill="#000000">ThemeToggler.tsx</text>
</a>
</g>
</g>
<!-- src/App.tsx&#45;&gt;src/components/ThemeToggler.tsx -->
<g id="edge6" class="edge">
<title>src/App.tsx&#45;&gt;src/components/ThemeToggler.tsx</title>
<path fill="none" stroke="#000000" stroke-width="2" stroke-opacity="0.200000" d="M126.274,-144.2998C132.157,-134.0703 143.1026,-117.5941 157,-108.3024 158.8582,-107.06 160.819,-105.9194 162.8481,-104.8724"/>
<polygon fill="#000000" fill-opacity="0.200000" stroke="#000000" stroke-width="2" stroke-opacity="0.200000" points="163.7986,-106.7464 168.3552,-102.3139 162.0289,-102.9374 163.7986,-106.7464"/>
</g>
<!-- src/components/TodoItem.tsx -->
<g id="node8" class="node">
<title>src/components/TodoItem.tsx</title>
<g id="a_node8"><a xlink:href="https://github.com/RascalTwo/Todo-Frontend/blob/main/src/components/TodoItem.tsx" xlink:title="TodoItem.tsx">
<path fill="#bbfeff" stroke="#000000" d="M238,-132.3024C238,-132.3024 182,-132.3024 182,-132.3024 179,-132.3024 176,-129.3024 176,-126.3024 176,-126.3024 176,-120.3024 176,-120.3024 176,-117.3024 179,-114.3024 182,-114.3024 182,-114.3024 238,-114.3024 238,-114.3024 241,-114.3024 244,-117.3024 244,-120.3024 244,-120.3024 244,-126.3024 244,-126.3024 244,-129.3024 241,-132.3024 238,-132.3024"/>
<text text-anchor="middle" x="210" y="-121.1024" font-family="Helvetica,sans-Serif" font-size="9.00" fill="#000000">TodoItem.tsx</text>
</a>
</g>
</g>
<!-- src/App.tsx&#45;&gt;src/components/TodoItem.tsx -->
<g id="edge7" class="edge">
<title>src/App.tsx&#45;&gt;src/components/TodoItem.tsx</title>
<path fill="none" stroke="#000000" stroke-width="2" stroke-opacity="0.200000" d="M141.6054,-144.2967C146.5893,-142.2063 151.9499,-140.0762 157,-138.3024 161.1559,-136.8426 165.5322,-135.4225 169.915,-134.075"/>
<polygon fill="#000000" fill-opacity="0.200000" stroke="#000000" stroke-width="2" stroke-opacity="0.200000" points="170.7325,-136.0223 175.8754,-132.2858 169.5249,-131.9996 170.7325,-136.0223"/>
</g>
<!-- src/components/VisitListCode.tsx -->
<g id="node9" class="node">
<title>src/components/VisitListCode.tsx</title>
<g id="a_node9"><a xlink:href="https://github.com/RascalTwo/Todo-Frontend/blob/main/src/components/VisitListCode.tsx" xlink:title="VisitListCode.tsx">
<path fill="#bbfeff" stroke="#000000" d="M246,-162.3024C246,-162.3024 174,-162.3024 174,-162.3024 171,-162.3024 168,-159.3024 168,-156.3024 168,-156.3024 168,-150.3024 168,-150.3024 168,-147.3024 171,-144.3024 174,-144.3024 174,-144.3024 246,-144.3024 246,-144.3024 249,-144.3024 252,-147.3024 252,-150.3024 252,-150.3024 252,-156.3024 252,-156.3024 252,-159.3024 249,-162.3024 246,-162.3024"/>
<text text-anchor="middle" x="210" y="-151.1024" font-family="Helvetica,sans-Serif" font-size="9.00" fill="#000000">VisitListCode.tsx</text>
</a>
</g>
</g>
<!-- src/App.tsx&#45;&gt;src/components/VisitListCode.tsx -->
<g id="edge8" class="edge">
<title>src/App.tsx&#45;&gt;src/components/VisitListCode.tsx</title>
<path fill="none" stroke="#000000" stroke-width="2" stroke-opacity="0.200000" d="M148.5338,-153.3024C152.7275,-153.3024 157.1656,-153.3024 161.6604,-153.3024"/>
<polygon fill="#000000" fill-opacity="0.200000" stroke="#000000" stroke-width="2" stroke-opacity="0.200000" points="161.8074,-155.4025 167.8074,-153.3024 161.8073,-151.2025 161.8074,-155.4025"/>
</g>
<!-- src/hooks.ts -->
<g id="node10" class="node">
<title>src/hooks.ts</title>
<g id="a_node10"><a xlink:href="https://github.com/RascalTwo/Todo-Frontend/blob/main/src/hooks.ts" xlink:title="hooks.ts">
<path fill="#ddfeff" stroke="#000000" d="M342,-68.3024C342,-68.3024 300,-68.3024 300,-68.3024 297,-68.3024 294,-65.3024 294,-62.3024 294,-62.3024 294,-56.3024 294,-56.3024 294,-53.3024 297,-50.3024 300,-50.3024 300,-50.3024 342,-50.3024 342,-50.3024 345,-50.3024 348,-53.3024 348,-56.3024 348,-56.3024 348,-62.3024 348,-62.3024 348,-65.3024 345,-68.3024 342,-68.3024"/>
<text text-anchor="middle" x="321" y="-57.1024" font-family="Helvetica,sans-Serif" font-size="9.00" fill="#000000">hooks.ts</text>
</a>
</g>
</g>
<!-- src/App.tsx&#45;&gt;src/hooks.ts -->
<g id="edge9" class="edge">
<title>src/App.tsx&#45;&gt;src/hooks.ts</title>
<path fill="none" stroke="#000000" stroke-width="2" stroke-opacity="0.200000" d="M122.5526,-144.2443C125.0681,-127.1491 133.1176,-90.3218 157,-73.3024 195.2775,-46.0244 252.0709,-48.02 287.7847,-52.9327"/>
<polygon fill="#000000" fill-opacity="0.200000" stroke="#000000" stroke-width="2" stroke-opacity="0.200000" points="287.5224,-55.0166 293.7636,-53.8095 288.1318,-50.861 287.5224,-55.0166"/>
</g>
<!-- src/components/TextFieldIconForm.tsx -->
<g id="node11" class="node">
<title>src/components/TextFieldIconForm.tsx</title>
<g id="a_node11"><a xlink:href="https://github.com/RascalTwo/Todo-Frontend/blob/main/src/components/TextFieldIconForm.tsx" xlink:title="TextFieldIconForm.tsx">
<path fill="#bbfeff" stroke="#000000" d="M368,-203.3024C368,-203.3024 274,-203.3024 274,-203.3024 271,-203.3024 268,-200.3024 268,-197.3024 268,-197.3024 268,-191.3024 268,-191.3024 268,-188.3024 271,-185.3024 274,-185.3024 274,-185.3024 368,-185.3024 368,-185.3024 371,-185.3024 374,-188.3024 374,-191.3024 374,-191.3024 374,-197.3024 374,-197.3024 374,-200.3024 371,-203.3024 368,-203.3024"/>
<text text-anchor="middle" x="321" y="-192.1024" font-family="Helvetica,sans-Serif" font-size="9.00" fill="#000000">TextFieldIconForm.tsx</text>
</a>
</g>
</g>
<!-- src/components/NewTodo.tsx&#45;&gt;src/components/TextFieldIconForm.tsx -->
<g id="edge12" class="edge">
<title>src/components/NewTodo.tsx&#45;&gt;src/components/TextFieldIconForm.tsx</title>
<path fill="none" stroke="#000000" stroke-width="2" stroke-opacity="0.200000" d="M245.1211,-207.2906C250.5318,-206.3645 256.2425,-205.387 262.0037,-204.4008"/>
<polygon fill="#000000" fill-opacity="0.200000" stroke="#000000" stroke-width="2" stroke-opacity="0.200000" points="262.7035,-206.4117 268.2631,-203.3294 261.9948,-202.2719 262.7035,-206.4117"/>
</g>
<!-- src/components/ThemeToggler.tsx&#45;&gt;src/hooks.ts -->
<g id="edge13" class="edge">
<title>src/components/ThemeToggler.tsx&#45;&gt;src/hooks.ts</title>
<path fill="none" stroke="#000000" stroke-width="2" stroke-opacity="0.200000" d="M244.172,-84.2649C247.8652,-83.0416 251.5368,-81.7162 255,-80.3024 261.0754,-77.8222 261.8965,-75.7126 268,-73.3024 274.3028,-70.8134 281.1996,-68.626 287.8724,-66.7649"/>
<polygon fill="#000000" fill-opacity="0.200000" stroke="#000000" stroke-width="2" stroke-opacity="0.200000" points="288.6608,-68.7278 293.914,-65.1481 287.575,-64.6706 288.6608,-68.7278"/>
</g>
<!-- src/components/TodoItem.tsx&#45;&gt;src/types.ts -->
<g id="edge14" class="edge">
<title>src/components/TodoItem.tsx&#45;&gt;src/types.ts</title>
<path fill="none" stroke="#000000" stroke-width="2" stroke-opacity="0.200000" d="M244.0679,-115.6314C280.8681,-109.2924 339.8762,-104.9547 382,-130.3024 398.3082,-140.1157 407.8111,-160.6344 412.7012,-174.9284"/>
<polygon fill="#000000" fill-opacity="0.200000" stroke="#000000" stroke-width="2" stroke-opacity="0.200000" points="410.8115,-175.9158 414.6313,-180.9971 414.814,-174.6428 410.8115,-175.9158"/>
</g>
<!-- src/components/WhenIcon.tsx -->
<g id="node12" class="node">
<title>src/components/WhenIcon.tsx</title>
<g id="a_node12"><a xlink:href="https://github.com/RascalTwo/Todo-Frontend/blob/main/src/components/WhenIcon.tsx" xlink:title="WhenIcon.tsx">
<path fill="#bbfeff" stroke="#000000" d="M350.5,-154.3024C350.5,-154.3024 291.5,-154.3024 291.5,-154.3024 288.5,-154.3024 285.5,-151.3024 285.5,-148.3024 285.5,-148.3024 285.5,-142.3024 285.5,-142.3024 285.5,-139.3024 288.5,-136.3024 291.5,-136.3024 291.5,-136.3024 350.5,-136.3024 350.5,-136.3024 353.5,-136.3024 356.5,-139.3024 356.5,-142.3024 356.5,-142.3024 356.5,-148.3024 356.5,-148.3024 356.5,-151.3024 353.5,-154.3024 350.5,-154.3024"/>
<text text-anchor="middle" x="321" y="-143.1024" font-family="Helvetica,sans-Serif" font-size="9.00" fill="#000000">WhenIcon.tsx</text>
</a>
</g>
</g>
<!-- src/components/TodoItem.tsx&#45;&gt;src/components/WhenIcon.tsx -->
<g id="edge15" class="edge">
<title>src/components/TodoItem.tsx&#45;&gt;src/components/WhenIcon.tsx</title>
<path fill="none" stroke="#000000" stroke-width="2" stroke-opacity="0.200000" d="M244.2094,-130.0826C255.2753,-132.2758 267.6722,-134.7329 279.223,-137.0222"/>
<polygon fill="#000000" fill-opacity="0.200000" stroke="#000000" stroke-width="2" stroke-opacity="0.200000" points="278.8808,-139.0952 285.1746,-138.2018 279.6974,-134.9753 278.8808,-139.0952"/>
</g>
<!-- src/components/VisitListCode.tsx&#45;&gt;src/components/TextFieldIconForm.tsx -->
<g id="edge16" class="edge">
<title>src/components/VisitListCode.tsx&#45;&gt;src/components/TextFieldIconForm.tsx</title>
<path fill="none" stroke="#000000" stroke-width="2" stroke-opacity="0.200000" d="M238.1659,-162.4335C243.7624,-164.3202 249.582,-166.3338 255,-168.3024 267.633,-172.8925 281.4904,-178.2945 293.232,-182.9818"/>
<polygon fill="#000000" fill-opacity="0.200000" stroke="#000000" stroke-width="2" stroke-opacity="0.200000" points="292.4608,-184.9351 298.8114,-185.2188 294.0238,-181.0367 292.4608,-184.9351"/>
</g>
<!-- src/index.css -->
<g id="node13" class="node">
<title>src/index.css</title>
<g id="a_node13"><a xlink:href="https://github.com/RascalTwo/Todo-Frontend/blob/main/src/index.css" xlink:title="index.css">
<path fill="#ffffcc" stroke="#000000" d="M143,-192.3024C143,-192.3024 100,-192.3024 100,-192.3024 97,-192.3024 94,-189.3024 94,-186.3024 94,-186.3024 94,-180.3024 94,-180.3024 94,-177.3024 97,-174.3024 100,-174.3024 100,-174.3024 143,-174.3024 143,-174.3024 146,-174.3024 149,-177.3024 149,-180.3024 149,-180.3024 149,-186.3024 149,-186.3024 149,-189.3024 146,-192.3024 143,-192.3024"/>
<text text-anchor="middle" x="121.5" y="-181.1024" font-family="Helvetica,sans-Serif" font-size="9.00" fill="#000000">index.css</text>
</a>
</g>
</g>
<!-- src/main.tsx -->
<g id="node14" class="node">
<title>src/main.tsx</title>
<g id="a_node14"><a xlink:href="https://github.com/RascalTwo/Todo-Frontend/blob/main/src/main.tsx" xlink:title="main.tsx">
<path fill="#bbfeff" stroke="#000000" d="M69.5,-177.3024C69.5,-177.3024 27.5,-177.3024 27.5,-177.3024 24.5,-177.3024 21.5,-174.3024 21.5,-171.3024 21.5,-171.3024 21.5,-165.3024 21.5,-165.3024 21.5,-162.3024 24.5,-159.3024 27.5,-159.3024 27.5,-159.3024 69.5,-159.3024 69.5,-159.3024 72.5,-159.3024 75.5,-162.3024 75.5,-165.3024 75.5,-165.3024 75.5,-171.3024 75.5,-171.3024 75.5,-174.3024 72.5,-177.3024 69.5,-177.3024"/>
<text text-anchor="middle" x="48.5" y="-166.1024" font-family="Helvetica,sans-Serif" font-size="9.00" fill="#000000">main.tsx</text>
</a>
</g>
</g>
<!-- src/main.tsx&#45;&gt;src/App.tsx -->
<g id="edge17" class="edge">
<title>src/main.tsx&#45;&gt;src/App.tsx</title>
<path fill="none" stroke="#000000" stroke-width="2" stroke-opacity="0.200000" d="M75.6825,-162.7169C79.7134,-161.8886 83.9068,-161.027 88.0475,-160.1762"/>
<polygon fill="#000000" fill-opacity="0.200000" stroke="#000000" stroke-width="2" stroke-opacity="0.200000" points="88.5968,-162.2072 94.0513,-158.9425 87.7514,-158.0932 88.5968,-162.2072"/>
</g>
<!-- src/main.tsx&#45;&gt;src/index.css -->
<g id="edge18" class="edge">
<title>src/main.tsx&#45;&gt;src/index.css</title>
<path fill="none" stroke="#000000" stroke-width="2" stroke-opacity="0.200000" d="M75.6825,-173.8878C79.5133,-174.6749 83.4907,-175.4922 87.4303,-176.3017"/>
<polygon fill="#000000" fill-opacity="0.200000" stroke="#000000" stroke-width="2" stroke-opacity="0.200000" points="87.2634,-178.4112 93.5633,-177.5619 88.1088,-174.2972 87.2634,-178.4112"/>
</g>
<!-- src/vite&#45;env.d.ts -->
<g id="node15" class="node">
<title>src/vite&#45;env.d.ts</title>
<g id="a_node15"><a xlink:href="https://github.com/RascalTwo/Todo-Frontend/blob/main/src/vite-env.d.ts" xlink:title="vite&#45;env.d.ts">
<path fill="#ccffcc" stroke="#000000" d="M75,-93.3024C75,-93.3024 22,-93.3024 22,-93.3024 19,-93.3024 16,-90.3024 16,-87.3024 16,-87.3024 16,-81.3024 16,-81.3024 16,-78.3024 19,-75.3024 22,-75.3024 22,-75.3024 75,-75.3024 75,-75.3024 78,-75.3024 81,-78.3024 81,-81.3024 81,-81.3024 81,-87.3024 81,-87.3024 81,-90.3024 78,-93.3024 75,-93.3024"/>
<text text-anchor="middle" x="48.5" y="-82.1024" font-family="Helvetica,sans-Serif" font-size="9.00" fill="#000000">vite&#45;env.d.ts</text>
</a>
</g>
</g>
</g>
</svg>
